<?xml version="1.0" standalone="no"?>
<!DOCTYPE svg PUBLIC "-//W3C//DTD SVG 20010904//EN"
 "http://www.w3.org/TR/2001/REC-SVG-20010904/DTD/svg10.dtd">
<svg version="1.0" xmlns="http://www.w3.org/2000/svg"
 width="584.000000pt" height="584.000000pt" viewBox="0 0 584.000000 584.000000"
 preserveAspectRatio="xMidYMid meet">

<g transform="translate(0.000000,584.000000) scale(0.100000,-0.100000)"
fill="#000000" stroke="none">
<path d="M2040 4897 c-159 -48 -267 -148 -325 -302 l-25 -65 0 -845 c0 -839 0
-845 21 -902 57 -153 160 -251 318 -302 63 -21 81 -21 884 -21 793 0 822 1
888 20 121 36 227 123 284 232 65 123 65 118 65 978 0 852 0 841 -61 966 -37
74 -131 170 -204 206 -116 58 -110 58 -976 57 -792 0 -794 0 -869 -22z m1081
-148 c40 -10 75 -17 78 -17 3 1 20 -4 36 -11 17 -6 55 -21 85 -33 237 -94 464
-326 559 -575 123 -318 81 -669 -112 -958 -55 -82 -196 -219 -287 -280 -273
-181 -643 -215 -956 -86 -126 52 -223 119 -336 232 -135 136 -218 283 -271
482 -31 118 -31 355 1 477 33 130 77 233 130 308 13 17 21 32 18 32 -3 0 2 8
12 19 9 10 27 31 39 47 90 119 259 246 403 302 30 12 69 27 85 33 17 6 41 13
55 15 14 2 48 10 75 17 77 20 297 18 386 -4z"/>
<path d="M3262 4458 c-21 -21 -14 -57 12 -64 14 -3 30 -3 35 1 18 11 12 54 -8
65 -24 13 -24 13 -39 -2z"/>
<path d="M3160 4445 c-20 -25 -8 -50 25 -50 24 0 31 5 33 24 6 37 -34 55 -58
26z"/>
<path d="M3072 4431 c-8 -4 -12 -19 -10 -32 4 -29 45 -34 61 -7 19 30 -19 60
-51 39z"/>
<path d="M3354 4426 c-12 -30 4 -47 38 -44 28 2 33 7 33 28 0 21 -5 26 -33 28
-22 2 -34 -2 -38 -12z"/>
<path d="M3458 4399 c-27 -15 -23 -57 7 -71 36 -16 75 3 75 36 0 38 -45 57
-82 35z"/>
<path d="M2996 4375 c-22 -22 -4 -55 30 -55 28 0 42 25 27 49 -14 22 -38 25
-57 6z"/>
<path d="M2814 4362 c-19 -13 -23 -41 -8 -57 31 -31 104 -10 104 30 0 27 -68
46 -96 27z"/>
<path d="M3125 4331 c-3 -12 -17 -21 -32 -23 -34 -4 -40 -23 -12 -39 19 -10
25 -9 38 7 9 11 29 19 46 19 25 0 30 4 30 25 0 21 -5 26 -32 28 -24 2 -33 -1
-38 -17z"/>
<path d="M3227 4344 c-14 -14 -7 -43 12 -49 29 -9 52 5 49 29 -3 21 -46 35
-61 20z"/>
<path d="M3562 4324 c-39 -27 -19 -94 28 -94 47 0 67 67 28 94 -12 9 -25 16
-28 16 -3 0 -16 -7 -28 -16z"/>
<path d="M3304 4308 c-7 -22 19 -52 40 -45 17 6 29 34 23 51 -10 24 -54 21
-63 -6z"/>
<path d="M2947 4304 c-12 -13 -8 -42 8 -48 25 -9 46 5 43 28 -3 21 -37 34 -51
20z"/>
<path d="M3383 4264 c-9 -24 10 -49 37 -49 31 0 48 28 31 49 -17 21 -60 21
-68 0z"/>
<path d="M3175 4254 c-19 -19 -19 -28 0 -44 9 -7 25 -10 41 -6 14 4 32 2 39
-4 17 -14 55 4 55 25 0 22 -32 35 -54 23 -11 -6 -21 -7 -25 -1 -12 19 -41 22
-56 7z"/>
<path d="M3024 4245 c-8 -21 4 -35 31 -35 23 0 40 24 29 41 -9 14 -54 10 -60
-6z"/>
<path d="M2813 4233 c-19 -7 -16 -60 3 -67 36 -14 64 -6 70 19 10 42 -27 67
-73 48z"/>
<path d="M2940 4225 c-10 -12 -10 -18 0 -30 7 -9 19 -14 27 -11 7 3 13 1 13
-4 0 -5 -10 -10 -22 -12 -15 -2 -23 -10 -23 -23 0 -24 34 -33 49 -13 6 9 21
18 34 22 26 9 29 34 5 43 -10 4 -24 15 -31 25 -16 22 -35 23 -52 3z"/>
<path d="M3108 4219 c-10 -5 -18 -17 -18 -24 0 -8 -9 -15 -20 -15 -24 0 -28
-38 -5 -46 17 -7 48 14 40 26 -3 4 9 10 25 14 31 6 38 24 18 44 -14 14 -18 14
-40 1z"/>
<path d="M3465 4190 c-10 -32 4 -60 29 -60 28 0 46 18 46 46 0 37 -64 49 -75
14z"/>
<path d="M3311 4182 c-13 -25 5 -52 34 -52 13 0 28 8 34 17 13 25 -5 53 -34
53 -13 0 -29 -8 -34 -18z"/>
<path d="M2983 4113 c-27 -19 -30 -41 -5 -50 9 -4 23 -13 31 -20 7 -8 21 -12
30 -11 32 7 10 99 -23 97 -6 0 -21 -7 -33 -16z"/>
<path d="M3382 4118 c-17 -17 -15 -26 7 -38 25 -13 51 -3 51 20 0 27 -37 39
-58 18z"/>
<path d="M2846 4099 c-19 -27 -7 -63 23 -67 45 -7 67 40 35 72 -21 22 -40 20
-58 -5z"/>
<path d="M3542 4108 c-40 -40 14 -96 63 -64 43 28 27 76 -25 76 -14 0 -31 -5
-38 -12z"/>
<path d="M2710 4060 c-15 -28 4 -60 36 -60 33 0 64 17 64 35 0 42 -80 62 -100
25z"/>
<path d="M2215 4036 c-97 -45 -173 -203 -159 -331 9 -91 90 -275 147 -338 7
-7 17 -20 22 -28 35 -54 68 -99 100 -134 83 -91 160 -165 177 -171 10 -3 18
-9 18 -14 0 -21 252 -156 271 -145 5 4 9 2 9 -3 0 -9 131 -56 186 -67 43 -8
151 11 183 32 14 10 29 18 32 18 18 1 81 55 97 85 17 30 42 120 42 151 0 13
-91 70 -101 63 -5 -3 -9 -1 -9 4 0 5 -42 31 -93 57 -109 56 -127 55 -172 -5
-46 -62 -98 -110 -118 -110 -41 0 -181 84 -282 168 -54 46 -179 218 -190 263
-5 22 2 35 44 80 81 87 81 84 16 255 -31 82 -61 154 -68 161 -19 20 -117 26
-152 9z m850 -824 c-3 -3 -11 0 -18 7 -9 10 -8 11 6 5 10 -3 15 -9 12 -12z"/>
<path d="M3421 4031 c-24 -45 26 -79 63 -42 16 17 18 25 10 39 -16 25 -60 28
-73 3z"/>
<path d="M2903 4023 c-16 -6 -17 -45 -1 -61 19 -19 45 -14 62 10 14 20 14 24
-1 40 -16 18 -36 21 -60 11z"/>
<path d="M3585 3990 c-15 -17 -16 -24 -7 -45 10 -21 19 -25 51 -25 39 0 61 18
61 49 0 39 -75 54 -105 21z"/>
<path d="M3325 3959 c-11 -17 24 -81 43 -77 21 4 27 40 12 67 -11 22 -44 28
-55 10z"/>
<path d="M3480 3955 c-15 -18 -6 -61 14 -68 19 -7 56 20 56 42 0 37 -46 55
-70 26z"/>
<path d="M2795 3950 c3 -6 -1 -7 -9 -4 -10 4 -18 -1 -22 -10 -9 -23 5 -34 17
-16 9 12 10 12 5 -2 -9 -28 25 -40 52 -18 20 17 21 22 10 39 -7 12 -23 21 -36
21 -13 0 -20 -4 -17 -10z"/>
<path d="M2957 3924 c-12 -13 -8 -42 8 -48 25 -9 46 5 43 28 -3 21 -37 34 -51
20z"/>
<path d="M3015 3864 c-19 -20 -16 -43 8 -58 37 -23 77 35 41 61 -23 17 -29 16
-49 -3z"/>
<path d="M2864 3862 c-16 -10 -13 -45 5 -59 22 -16 51 2 51 31 0 30 -31 45
-56 28z"/>
<path d="M3283 3851 c-3 -14 -13 -21 -28 -21 -26 0 -39 -22 -22 -39 18 -18 55
-13 62 8 3 10 15 21 26 24 28 7 21 41 -9 45 -17 3 -25 -2 -29 -17z"/>
<path d="M3360 3840 c-16 -10 -6 -40 15 -40 8 0 15 2 15 4 0 2 3 11 6 19 6 17
-17 29 -36 17z"/>
<path d="M3500 3825 c-25 -30 16 -70 58 -54 48 18 35 69 -18 69 -15 0 -33 -7
-40 -15z"/>
<path d="M3081 3796 c-19 -23 -2 -48 33 -45 17 1 39 -1 48 -5 30 -13 53 -3 53
24 0 22 -4 25 -37 25 -20 0 -40 3 -44 8 -12 12 -41 8 -53 -7z"/>
<path d="M2955 3780 c3 -5 -1 -10 -9 -10 -20 0 -20 -9 -1 -35 15 -19 16 -19
37 2 18 18 19 24 8 37 -14 17 -45 22 -35 6z"/>
<path d="M3311 3781 c-12 -8 -12 -12 -2 -25 15 -17 36 -22 26 -6 -4 6 1 7 10
3 13 -4 16 -1 13 13 -4 21 -26 28 -47 15z"/>
<path d="M3269 3724 c-10 -13 -10 -17 2 -25 20 -13 36 -11 42 5 5 13 -10 36
-24 36 -4 0 -12 -7 -20 -16z m30 -17 c0 -9 -2 -8 -6 1 -2 6 -10 9 -15 6 -7 -4
-8 -2 -4 5 9 13 26 5 25 -12z"/>
<path d="M3022 3711 c-3 -7 3 -20 13 -28 16 -11 21 -11 35 3 11 12 12 18 2 21
-6 3 -10 9 -7 13 3 5 -4 8 -16 7 -12 -1 -24 -8 -27 -16z"/>
<path d="M3509 3706 c-30 -14 -35 -38 -14 -60 22 -22 58 -20 81 5 33 36 -19
79 -67 55z"/>
<path d="M3113 3695 c-21 -16 -14 -27 21 -30 19 -2 24 1 23 16 -2 25 -21 31
-44 14z"/>
<path d="M3195 3700 c-7 -12 16 -50 31 -50 6 0 17 7 24 15 10 12 10 18 0 30
-14 17 -46 20 -55 5z"/>
<path d="M3785 2381 c-76 -19 -126 -64 -146 -130 -7 -23 -9 -168 -7 -417 l3
-380 27 -41 c38 -58 84 -77 196 -81 111 -5 166 12 211 63 48 55 53 101 49 495
-3 389 -4 390 -66 446 -51 45 -178 66 -267 45z m148 -163 c16 -20 18 -47 15
-370 -3 -333 -4 -350 -22 -364 -26 -19 -76 -18 -104 2 l-22 15 0 353 c0 266 3
356 13 368 25 33 90 31 120 -4z"/>
<path d="M1730 1855 l0 -515 85 0 85 0 0 225 0 225 75 0 75 0 0 -225 0 -225
85 0 85 0 0 515 0 515 -85 0 -85 0 0 -220 0 -220 -75 0 -75 0 0 220 0 220 -85
0 -85 0 0 -515z"/>
<path d="M2500 2362 c0 -4 -25 -144 -55 -310 -52 -286 -115 -667 -115 -698 0
-11 18 -14 83 -14 l83 0 13 93 c19 138 9 127 111 127 l88 0 6 -47 c4 -27 12
-76 18 -110 l10 -63 84 0 85 0 -6 33 c-3 17 -14 91 -25 162 -10 72 -47 289
-82 482 l-63 353 -117 0 c-65 0 -118 -4 -118 -8z m151 -424 c39 -254 43 -233
-37 -233 -65 0 -65 0 -61 25 3 14 18 109 33 212 15 103 30 186 32 183 3 -2 17
-87 33 -187z"/>
<path d="M2952 2358 c3 -7 51 -142 107 -300 l101 -287 0 -215 0 -216 85 0 85
0 0 223 0 223 95 269 c53 149 100 280 105 293 10 22 9 22 -80 22 l-89 0 -20
-67 c-11 -38 -36 -125 -57 -196 -21 -70 -41 -124 -45 -120 -4 5 -31 92 -60
196 l-54 187 -88 0 c-67 0 -88 -3 -85 -12z"/>
<path d="M1780 1095 l0 -155 66 0 c135 0 207 41 219 125 19 124 -54 185 -219
185 l-66 0 0 -155z m187 71 c23 -20 28 -32 28 -71 0 -62 -35 -95 -101 -95
l-44 0 0 95 0 95 44 0 c33 0 52 -6 73 -24z"/>
<path d="M2130 1246 c0 -3 -1 -72 -1 -153 l0 -148 31 0 31 0 0 150 0 150 -30
3 c-17 2 -31 1 -31 -2z"/>
<path d="M2305 1104 c-33 -81 -61 -150 -63 -155 -2 -5 14 -9 36 -9 37 0 41 3
47 30 7 30 7 30 75 30 68 0 68 0 75 -30 6 -27 10 -30 47 -30 34 0 39 3 34 18
-4 9 -32 79 -63 155 l-57 137 -35 0 -36 0 -60 -146z m114 19 c7 -21 15 -44 17
-50 4 -9 -6 -13 -35 -13 -23 0 -41 1 -41 3 0 15 34 97 39 97 4 0 13 -17 20
-37z"/>
<path d="M2645 1236 c-93 -40 -73 -137 34 -166 21 -6 42 -17 45 -26 15 -39
-48 -59 -90 -29 -19 13 -23 12 -44 -10 l-22 -23 28 -18 c19 -13 46 -19 87 -19
54 0 61 3 88 33 54 60 33 112 -59 143 -39 13 -47 20 -47 40 0 19 6 25 27 27
15 2 37 -2 48 -8 18 -9 25 -8 41 6 27 24 24 30 -21 48 -48 19 -75 20 -115 2z"/>
<path d="M2859 1239 c-5 -110 -6 -259 -2 -277 5 -19 11 -23 37 -20 31 3 31 3
31 61 l0 57 35 0 c75 0 138 58 124 114 -12 51 -47 69 -139 74 -67 4 -85 2 -86
-9z m146 -84 c0 -28 -2 -30 -40 -30 -39 0 -40 1 -40 33 0 32 1 33 40 30 37 -3
40 -5 40 -33z"/>
<path d="M3225 1239 c-69 -26 -110 -89 -102 -157 6 -56 31 -91 88 -120 35 -18
54 -22 92 -18 95 10 147 65 147 153 0 58 -26 105 -70 128 -40 21 -117 28 -155
14z m120 -72 c18 -15 28 -36 32 -64 5 -37 2 -45 -25 -73 -64 -63 -152 -26
-152 65 0 35 6 52 25 70 32 33 84 33 120 2z"/>
<path d="M3517 1243 c-2 -5 -3 -73 -3 -153 l1 -145 33 -3 32 -3 0 60 c0 83 23
84 68 1 32 -58 35 -60 73 -60 36 0 51 12 30 24 -5 3 -21 27 -36 52 l-27 45 26
24 c56 52 39 135 -31 154 -44 12 -160 15 -166 4z m157 -75 c18 -29 -4 -53 -53
-56 l-41 -3 0 41 0 41 41 -3 c27 -2 46 -9 53 -20z"/>
<path d="M3835 1104 c-33 -81 -61 -150 -63 -155 -2 -5 13 -9 33 -9 32 0 38 4
48 30 11 29 14 30 75 30 61 0 63 -1 73 -30 10 -26 16 -30 50 -30 21 0 39 2 39
6 0 3 -28 72 -62 155 l-62 149 -35 0 -36 0 -60 -146z m114 19 c8 -21 16 -44
18 -50 4 -9 -7 -13 -37 -13 -30 0 -41 4 -37 13 2 6 10 29 18 50 7 20 16 37 19
37 3 0 12 -17 19 -37z"/>
</g>
</svg>
